<?xml version="1.0" standalone="no"?>
<svg viewBox="0 0 200 200" xmlns="http://www.w3.org/2000/svg">
  <path fill="#045C61" d="M41.8,-74C51.4,-66.8,54.6,-50.1,62.7,-36.2C70.8,-22.3,83.7,-11.1,88,2.5C92.2,16,87.8,32.1,77.3,41.8C66.8,51.6,50.3,55.1,36.4,62.2C22.5,69.3,11.3,80.1,-1.4,82.5C-14,84.9,-28.1,78.9,-41.9,71.7C-55.7,64.6,-69.3,56.2,-72.2,44.1C-75.1,31.9,-67.2,16,-64.3,1.7C-61.3,-12.5,-63.3,-25.1,-58.7,-34.3C-54.1,-43.5,-43,-49.3,-32.1,-55.9C-21.2,-62.4,-10.6,-69.7,2.7,-74.5C16.1,-79.2,32.1,-81.3,41.8,-74Z" transform="translate(100 100)" />
</svg>
