<svg xmlns="http://www.w3.org/2000/svg" viewBox="0 0 217.43 190.31"><defs><style>.cls-1{fill:#255a5f;}.cls-2{fill:#f4bb82;}.cls-3{fill:#e53939;}.cls-4{fill:#874010;}.cls-5{fill:#e58e63;}.cls-6{fill:#4c311e;}.cls-7{fill:#994f1d;}.cls-8{fill:#c99a7b;}.cls-9{fill:#ffe7d7;opacity:0.24;}.cls-10{fill:#fff;}.cls-11{fill:#e6faff;}.cls-12{fill:#424039;}</style></defs><g id="Calque_2" data-name="Calque 2"><g id="_ÎÓÈ_1" data-name="—ÎÓÈ_1"><path class="cls-1" d="M192.17,77.84C174.22,14.3,115.54-4.42,95.59.84c0,0-27.09,8.76-41.75,28.9s-32,47.72-30.24,96.9c1.5,42.28,33.09,63.53,76.06,63.67q4.88,0,10-.33c-2.58-6.54-12.48-32.3-15.13-48.23a238,238,0,0,1-3.34-30.31s10.79-14.52,41.68-13.79,40.74,10.75,40.74,10.75-3.17,27.23-10.12,51.43c-2,7.08-3.69,12.56-5.05,16.8C189.6,159.14,205.54,125.18,192.17,77.84Z"/><circle class="cls-1" cx="205.28" cy="46.26" r="12.15"/><path class="cls-1" d="M176,31.21a4.59,4.59,0,1,0,4.59-4.59A4.6,4.6,0,0,0,176,31.21Z"/><circle class="cls-1" cx="174.15" cy="12.7" r="3.57" transform="translate(0.23 28.18) rotate(-9.26)"/><circle class="cls-1" cx="9.57" cy="68.26" r="9.57"/><path class="cls-1" d="M35.18,47a6.32,6.32,0,1,0-6.32-6.32A6.32,6.32,0,0,0,35.18,47Z"/><circle class="cls-1" cx="19.14" cy="40.81" r="2.28"/><circle class="cls-1" cx="25.22" cy="172.26" r="8.74" transform="translate(-27.19 6.24) rotate(-9.19)"/><path class="cls-1" d="M19.14,157.07a3.66,3.66,0,1,0-3.66-3.66A3.66,3.66,0,0,0,19.14,157.07Z"/><path class="cls-2" d="M91.14,111.44s-5.56,6.4-7.41,19.74S82.24,158.06,67,159s-17.42-33.18-17.42-33.18L40,126.92S38.49,152.5,49.8,167.7s38,5.57,44.86,0,7.23-19.65,7.23-19.65Z"/><path class="cls-3" d="M173.56,108.4s-9.84-10-40.74-10.75-41.68,13.79-41.68,13.79a238,238,0,0,0,3.34,30.31C97.13,157.68,107,183.44,109.61,190q5.85-.4,11.93-1.29a123.36,123.36,0,0,0,13.62-2.78,100,100,0,0,0,23.23-9.28c1.36-4.24,3-9.72,5.05-16.8C170.39,135.63,173.56,108.4,173.56,108.4Z"/><path class="cls-4" d="M150.76,49.58a21.13,21.13,0,0,1,3.12,9.54c.23,5.21-.09,12.6-3.74,18s-5.21,10.13-5.47,12a2.64,2.64,0,0,1-1.46,2.31l-3.43.06-4.43-15.26,9.1-19.53Z"/><path class="cls-2" d="M122.47,84.32l-1.75,14.05s1.61,4.68,9.21,4.66a15.15,15.15,0,0,0,11.39-4.68l-1.13-18.19Z"/><path class="cls-5" d="M141,92.49a23.32,23.32,0,0,1-12.13,1c-6.44-1.29-7.13-3-7.13-3l0-1,18.54-7.28Z"/><path class="cls-2" d="M105.58,57.64l.16,9.9s.57,20.08,10.33,21.7,21-3.38,24.15-7,4.65-10,4.65-10,4.63,1.28,7.13-5.56-.59-8.25-.59-8.25a5.63,5.63,0,0,0-4.32-.07c-2.29.94-2.77,1.65-2.77,1.65s3.82-14.15,1.47-21.23-17.33-12.93-29.91-6S105.58,57.64,105.58,57.64Z"/><path class="cls-5" d="M151.13,64.5s.54-3.11-.34-3.76-4.22.42-5,4.2.69,3.79,1.56,3.67,1.69-1.46,1.31-3.13S147.6,64,147.6,64s1.08-2.68,2.36-2.41.92,3,.92,3Z"/><path class="cls-6" d="M128.61,60.34c0-1.34.76-2.44,1.75-2.45s1.81,1,1.83,2.39-.76,2.44-1.75,2.46S128.63,61.68,128.61,60.34Z"/><path class="cls-6" d="M109.85,60.65c0-1.34.76-2.44,1.75-2.45s1.81,1,1.83,2.39S112.67,63,111.68,63,109.87,62,109.85,60.65Z"/><path class="cls-5" d="M114.42,68.32c.11-1.68,1.91-3.09,2.74-4.43a11.29,11.29,0,0,0,1.31-2.68,13.18,13.18,0,0,0,.29-3.37c0-.08.12-.13.16-.05,1.15,2.06.14,5.12-.94,7a15.32,15.32,0,0,1-.94,1.43c-.46.62-1.58,1.64-1.29,2.51.2.59,1.25,1,1.78,1.1a3.41,3.41,0,0,0,2-.2.27.27,0,0,1,.34.33c-.22,1.41-2,1.38-3,1C115.6,70.56,114.32,69.83,114.42,68.32Z"/><path class="cls-7" d="M126.68,54c1.33-1,3.93-.78,5.45-.47a5,5,0,0,1,3.68,2.65.35.35,0,0,1,.24.38l0,.3a.41.41,0,0,1-.16.3.63.63,0,0,1-.8.54,47.57,47.57,0,0,0-7.33-.94C126.22,56.66,125.26,55.11,126.68,54Z"/><path class="cls-7" d="M116.68,54.13a47.12,47.12,0,0,0-7.2,1.63.62.62,0,0,1-.85-.46.42.42,0,0,1-.18-.28l-.06-.3a.37.37,0,0,1,.21-.4,5,5,0,0,1,3.41-3c1.48-.46,4-.94,5.47-.06S118.18,53.85,116.68,54.13Z"/><path class="cls-8" d="M131.88,38.91s7.82.65,9.74,5.66-.23,13.21-.94,14.23a21.76,21.76,0,0,1-2.2,2.45l3.29,2.4L144.32,60s2.52-1.77,3.58-1.91a13.73,13.73,0,0,1,2.62,0A39.2,39.2,0,0,0,151,45.7c-.86-6.53-3-10-3-10Z"/><path class="cls-8" d="M110.22,40a26.57,26.57,0,0,0-4,9.28,28.17,28.17,0,0,0-.63,9,36,36,0,0,1-.3-13.35,19.58,19.58,0,0,1,6.94-11.28Z"/><path class="cls-7" d="M122.1,28c6.53-1.33,14.12-1.36,19.61.48,0,0,6.2,3.72,4.62,7s-3.72,1.1-11.16,2-11.39,3.41-11.39,3.41h0a21.44,21.44,0,0,1-4.33.47c-3.52-.17-9.54-.85-10-1.85S112,30.06,122.1,28Z"/><path class="cls-4" d="M135.17,37.47c7.44-.94,9.57,1.19,11.16-2s-4.62-7-4.62-7c3,1,5.45,2.61,6.67,4.87a20.66,20.66,0,0,1,2.26,10,60.48,60.48,0,0,0-9.53-3.16,47.07,47.07,0,0,0-9.23-1.3s-4.3,1.25-8.1,2h0S127.72,38.42,135.17,37.47Z"/><path class="cls-9" d="M123.07,28s-9.54,3.18-4,5.88,14.87,3.16,14.87,3.16l-9,2.31s-15.67-.31-12.44-5.49S123.07,28,123.07,28Z"/><path class="cls-7" d="M141.75,80.14c-4,5.38-9,13.36-21.45,13.56A16.21,16.21,0,0,1,110.5,91a20.6,20.6,0,0,1-3.34-13.49s-.8-6.91,11.74-7.11,12.65,7,12.65,7a17.2,17.2,0,0,0,7.26-3.15c3.84-2.75,3.1-9.23,3.1-9.23l2.12-.37S145.73,74.75,141.75,80.14Z"/><path class="cls-10" d="M118.05,77.25,114.21,77,113.34,74l14.24-.23s-.49,7.54-7.48,7.66a6.85,6.85,0,0,1-5.34-2.11l-.52-1.73Z"/><path class="cls-5" d="M113.34,74l.87,3.09,3.84.21-3.81.29.52,1.73a10,10,0,0,1-2.39-5.3Z"/><path class="cls-4" d="M132.71,93.4c-8,6.63-16.33,5.87-21.56-1.41-.23-.32-.44-.64-.65-1a16.21,16.21,0,0,0,9.8,2.68c12.41-.2,17.46-8.18,21.45-13.56S144,64.67,144,64.67s.59.93,1,6.74S140.73,86.78,132.71,93.4Z"/><path class="cls-11" d="M106.85,85.23s-1.61-1.42.6-3.63,3.83,0,3.83,0a5.23,5.23,0,0,1,3.12-1A3.3,3.3,0,0,1,116.89,82s-.71-3.7,3.91-4.43,4.42,3.55,4.42,3.55.4-1.64,2.93-1.56,2.15,3.26,2.15,3.26a3.68,3.68,0,0,1,4.61,1.06c2.22,2.46-2.6,4.43-2.6,4.43s3.52,0,3.18,5.23-4.67,4.63-4.67,4.63,1.33,2-.15,3-3.36-.24-3.36-.24.5,3.64-4.88,3.84-6-1.58-6-1.58-.1,1.58-1,2a3.76,3.76,0,0,1-1.18.39,2.51,2.51,0,0,1,0,2.47c-.79,1.13-1.41,1.1-1.41,1.1s-2.29,1.46-3.27-.41a2.31,2.31,0,0,1,.54-3s-3.45-1-3.21-4,2.3-3.7,2.3-3.7-2.84-.2-2.91-2.12A3.17,3.17,0,0,1,107.94,93s-3.26-1.33-3.6-4.44A2.8,2.8,0,0,1,106.85,85.23Z"/><path class="cls-10" d="M109.73,81.51a1.84,1.84,0,0,0-1.85.65c-.12.17.08.37.25.33.37-.09,1.76-.48,1.7.31,0,.62.9.6,1,0A1.28,1.28,0,0,0,109.73,81.51Z"/><path class="cls-10" d="M115.07,81.9a2.18,2.18,0,0,0-2.41-.08.22.22,0,0,0,0,.39,6.34,6.34,0,0,1,1.67.51,2.46,2.46,0,0,1,.55.52c.13.16.3.24.43.38a.17.17,0,0,0,.24,0C116.24,83,115.68,82.27,115.07,81.9Z"/><path class="cls-10" d="M115.62,84.23s-.05-.06-.1-.06a.38.38,0,0,0-.28.07.28.28,0,0,0-.12.2.31.31,0,0,0,.3.35.31.31,0,0,0,.31-.31A.34.34,0,0,0,115.62,84.23Z"/><path class="cls-10" d="M111.22,85.4a3.25,3.25,0,0,0-.44,0c-.14,0-.29,0-.43.06a.19.19,0,0,0,0,.36c.14,0,.29,0,.43.06a3.25,3.25,0,0,0,.44,0A.27.27,0,0,0,111.22,85.4Z"/><path class="cls-10" d="M108.49,87.21c-.6-.46-1.49-1.06-2.22-.52a.23.23,0,0,0,.18.42c.53-.08,1,.48,1.39.8a1.52,1.52,0,0,1,.7,1.28c-.09.63.83.92,1,.27A2.26,2.26,0,0,0,108.49,87.21Z"/><path class="cls-10" d="M122.47,78.77a1.7,1.7,0,0,0-1.27-.47,2.69,2.69,0,0,0-1.56.91c-.08.1-.08.31.09.33a2.22,2.22,0,0,0,.89,0c.37-.08.62-.27.95-.1a2.13,2.13,0,0,1,1.25,2c-.09.63,1,.79,1.11.15A2.88,2.88,0,0,0,122.47,78.77Z"/><path class="cls-10" d="M129.65,81.49a1.12,1.12,0,0,0-1.51-.84.23.23,0,0,0,.05.41.77.77,0,0,1,.4.23.5.5,0,0,1,.12.33.47.47,0,0,0,.54.47A.49.49,0,0,0,129.65,81.49Z"/><path class="cls-10" d="M133.16,83.38a1.31,1.31,0,0,0-1.59,0,.18.18,0,0,0,0,.29c.61.33,1.35.52,1.45,1.32a.56.56,0,0,0,.53.54.55.55,0,0,0,.54-.54A2.11,2.11,0,0,0,133.16,83.38Z"/><path class="cls-10" d="M130.64,88.57c-1.53-.21-3.52.54-4.08,2.09-.06.17.15.3.3.22,1.18-.61,2.2-1.45,3.63-1.22a3.09,3.09,0,0,1,1.6.78c.4.38.57.79,1,1.09a.33.33,0,0,0,.49-.2C134,89.85,131.87,88.73,130.64,88.57Z"/><path class="cls-10" d="M133.85,92.73a2.92,2.92,0,0,0-.13-.42.25.25,0,0,0-.48,0,2,2,0,0,0-.13.42.94.94,0,0,0,0,.55.43.43,0,0,0,.82,0A1,1,0,0,0,133.85,92.73Z"/><path class="cls-10" d="M128.78,97.65A.94.94,0,0,0,128,98a.22.22,0,0,0,.21.36.47.47,0,0,1,.37,0,.38.38,0,1,0,.19-.71Z"/><path class="cls-10" d="M118.91,88.51a1.71,1.71,0,0,0-2.72.67.12.12,0,0,0,.2.11,1.25,1.25,0,0,1,2-.05,1.27,1.27,0,0,1,.15,1.64.53.53,0,0,0,.75.75A2.13,2.13,0,0,0,118.91,88.51Z"/><path class="cls-10" d="M117.09,92.13h0a0,0,0,0,1,0,0c0-.06,0,0,0,.05a.41.41,0,0,0,0-.07h0a.31.31,0,0,0,0-.15h0v-.06a.33.33,0,0,0-.23-.34h0a.37.37,0,0,0-.35.09.46.46,0,0,0-.15.45.47.47,0,0,0,0,.1c0-.08,0-.07,0,0l.09.12a.43.43,0,0,0,.39.12c-.08,0,0,0,0,0l.1,0h0C117.17,92.44,117.22,92.2,117.09,92.13Z"/><path class="cls-10" d="M125.28,85.46a.67.67,0,0,0-.23-.1h-.15l-.12,0h0a.24.24,0,0,0,.06.46h.06v0h0l0,0v0a.39.39,0,0,0,0,.15.35.35,0,0,0,.68,0A.63.63,0,0,0,125.28,85.46Z"/><path class="cls-10" d="M123.68,98a1.46,1.46,0,0,0-2,.11.23.23,0,0,0,.19.35,1.52,1.52,0,0,1,1.33.43,2.77,2.77,0,0,1,.43,1.46c.09.63,1,.4,1-.13A2.52,2.52,0,0,0,123.68,98Z"/><path class="cls-10" d="M113.36,99.71a1.46,1.46,0,0,0-1.15-.69,1,1,0,0,0-1,.54c-.06.13.08.28.21.28.42,0,.83,0,1,.4C112.73,100.85,113.74,100.29,113.36,99.71Z"/><path class="cls-10" d="M112.21,94.23a5.78,5.78,0,0,0-.72,0,.26.26,0,0,0-.13.48c.24.13.48.26.74.37s.49-.13.52-.35A.42.42,0,0,0,112.21,94.23Z"/><path class="cls-2" d="M171.78,107.83a18.57,18.57,0,0,0-14.74,15c-2.78,13.35-1.71,30-15.45,29.2S128,126.74,128,126.74s3.44-4.73,4.42-8.9-.41-11-1.12-12.93-2.64-2.23-2.64,0,.52,6.25.52,6.25S127,103.1,125.07,99.9s-4.8-6.45-7-5-2.82,7.37-2.84,14.59,2.5,19,2.84,21.14,3.67,46.06,34.93,41.47,29.18-40.73,28.07-51.85S171.78,107.83,171.78,107.83Z"/><path class="cls-2" d="M48.32,128.5l1.3-2.69s2-3.89,1.94-7.32-1.85-8.35-3.24-10.11-3.25-3.06-3.34-1,1.48,3.53,1.48,5-.93,4.08-1.48,4.08-4.73-2.23-4.17-4.55,3.8-5.46,3.8-6.21-1.3-1-5.28.75A5.37,5.37,0,0,0,36,112.09s-.93-.09-1.39,1.3a3,3,0,0,0,.46,2.59,2.46,2.46,0,0,0-1.2,2.41c.18,1.67,1,2,1,2s-1,2.13-.56,3.34S40,126.92,40,126.92Z"/><polygon class="cls-12" points="49.15 91.79 41.48 110.33 44.43 111.44 50.91 92.44 56.85 94.2 58.14 91.79 44.05 87.71 42.7 89.84 49.15 91.79"/></g></g></svg>