<svg id="Repères" xmlns="http://www.w3.org/2000/svg" viewBox="0 0 274.59 261.54"><defs><style>.cls-1{fill:#faf4e4;}</style></defs><path class="cls-1" d="M151.56,193.61a47.36,47.36,0,0,1-10.1,0c-7.44-.79-21.3-.5-28.75,10.85-10.51,16,8.26,26.29,8.26,26.29s7.29-9.41,23.75-12.27a6.17,6.17,0,0,1,1.79-.28,6.11,6.11,0,0,1,1.79.28c16.47,2.86,23.75,12.27,23.75,12.27s18.77-10.26,8.26-26.29C172.86,193.11,159,192.82,151.56,193.61Z" transform="translate(-8.06 -7.68)"/><path class="cls-1" d="M219.37,24.56C189,8.05,151.71,7.68,146.5,7.68a164.6,164.6,0,0,0-59.56,11c20.38,1.55,55.88-15.43,100.88-.63,25.54,8.41,38.31,28.61,38.64,49.68.35,22-8.35,40.55-8.35,40.55,4.76-24.55.5-45.78-26.53-61.48s-63.16-3.09-86.88,3.1C65.68,60.09,71.15,7.7,71.15,7.68h0S62,15,62.31,30.85c-7.16,5.76-56,46.36-54.2,108.08C9.87,200.87,62,264,135.52,269.22v0c-11.85-6-28.32-15.61-32.82-24.6-7.26-14.5-23.79-44.29-25.29-59.39s-3.75-34.82-3.75-34.82,12.26,37.44,17,43.68,8,8.66,10.27,3.82,7.76-27.78,45.56-28.38c37.81.6,43.31,23.55,45.57,28.38s5.5,2.42,10.26-3.82,17-43.68,17-43.68-2.26,19.72-3.76,34.82-18,44.89-25.29,59.39c-4.45,8.89-20.61,18.39-32.43,24.4,73.54-6.64,123.19-71.11,124.73-131.53C283.77,92.36,258.2,45.71,219.37,24.56ZM63.88,137c-4.64,23.79,8.3,39.86,8.3,39.86-15.26-5.41-18.43-48.23-10.81-52.16,10.81-5.58,13.53,15.75,13.53,15.75S66.48,123.73,63.88,137Zm55.43-67.51C60.1,92.47,65.68,44,65.68,44s-.6,18.78,25.84,20.66S150.35,44,181.06,57C181.06,57,162,53,119.31,69.52ZM220.82,176.89s13-16.07,8.31-39.86c-2.6-13.3-11,3.45-11,3.45s2.72-21.33,13.54-15.75C239.25,128.66,236.09,171.48,220.82,176.89Z" transform="translate(-8.06 -7.68)"/></svg>